<svg xmlns="http://www.w3.org/2000/svg" width="309.875" height="89.47" viewBox="0 0 309.875 89.47">
    <defs>
        <style>
            .cls-1,.cls-2{fill:#1a3e57}.cls-1{font-size:32px;font-family:BarlowCondensed-Regular,Barlow}.cls-3{fill:#d4de7f}
        </style>
    </defs>
    <g id="Group_208" data-name="Group 208" transform="translate(-804.5 -433)">
        <g id="Group_204" data-name="Group 204" transform="translate(42.042 -5.627)">
            <text id="Management_Goals_Argentina" class="cls-1" data-name="Management Goals Argentina" transform="translate(902.333 492.097)">
                <tspan x="0" y="0">Management</tspan><tspan x="0" y="29">Goals Argentina</tspan>
            </text>
            <path id="Path_406" d="M856.239 477.4h13.885a19.384 19.384 0 1 0-17.631-27.948 32.166 32.166 0 0 0-4.618-.325q-10.6 0-17.025 6.067t-6.421 16.2V488h-7.421v-36.523a1.407 1.407 0 0 0-1.414-1.414h-13.667a1.666 1.666 0 0 0-1.649 1.061l-10.251 22.032q-.353.707-.707 0l-10.25-22.032a1.67 1.67 0 0 0-1.649-1.061h-13.549a1.407 1.407 0 0 0-1.414 1.414v69.3a1.407 1.407 0 0 0 1.414 1.414h13.784a1.407 1.407 0 0 0 1.414-1.414v-40.788c0-.313.078-.471.236-.471s.313.118.472.354l9.072 18.5q.588 1.06.824 1.061.355 0 .825-1.061l9.19-18.261c.077-.313.215-.452.412-.413s.295.218.295.53v40.556a1.407 1.407 0 0 0 1.414 1.414h13.784a1.407 1.407 0 0 0 1.414-1.414v-19.47h7.421q0 10.133 6.421 16.2t17.025 6.068q10.6 0 17.083-6.068t6.48-16.2v-11.9a1.407 1.407 0 0 0-1.415-1.414H841.04v-16.73a8.424 8.424 0 0 1 1.885-5.714 6.226 6.226 0 0 1 4.948-2.18 6.36 6.36 0 0 1 5.066 2.18 8.429 8.429 0 0 1 1.886 5.714v6.13zm-2 23.918a.506.506 0 0 1 .576.5 8.266 8.266 0 0 1-1.872 5.334 6.354 6.354 0 0 1-5.066 2.179 6.22 6.22 0 0 1-4.948-2.179 8.423 8.423 0 0 1-1.885-5.714v-.117z" class="cls-2" data-name="Path 406"/>
            <g id="Group_203" data-name="Group 203" transform="translate(860.305 449.737)">
                <path id="Path_407" d="M893.367 467.682l-.411-2.275q0-.109-.13-.109h-3.142c-.087 0-.13.029-.13.087l-.433 2.3a.244.244 0 0 1-.281.238h-1.994q-.281 0-.217-.281l3.185-14.649a.26.26 0 0 1 .282-.239h2.319a.26.26 0 0 1 .281.239l3.208 14.649v.087c0 .13-.08.195-.239.195h-2.015a.245.245 0 0 1-.283-.242zm-3.271-4.356h2.361q.13 0 .109-.109l-1.192-6.544c-.015-.043-.036-.065-.065-.065s-.05.022-.065.065l-1.257 6.544q-.023.109.113.109z" class="cls-3" data-name="Path 407" transform="translate(-886.616 -452.73)"/>
                <path id="Path_408" d="M906.375 467.7l-1.864-6.241c-.028-.058-.065-.087-.108-.087h-1.127a.1.1 0 0 0-.108.109v6.175a.258.258 0 0 1-.26.26h-1.994a.258.258 0 0 1-.26-.26v-14.67a.258.258 0 0 1 .26-.26h4.074a3.615 3.615 0 0 1 3.392 2.113 5.238 5.238 0 0 1 .487 2.307 4.926 4.926 0 0 1-.52 2.33 3.472 3.472 0 0 1-1.452 1.485c-.058.014-.08.058-.065.13l2.124 6.522a.248.248 0 0 1 .022.109c0 .13-.08.195-.239.195h-2.08a.272.272 0 0 1-.282-.217zm-3.207-12.7v4.312a.1.1 0 0 0 .108.109h1.324a1.551 1.551 0 0 0 1.268-.607 2.523 2.523 0 0 0 .488-1.626 2.645 2.645 0 0 0-.488-1.679 1.541 1.541 0 0 0-1.268-.617h-1.322a.1.1 0 0 0-.11.108z" class="cls-3" data-name="Path 408" transform="translate(-889.591 -452.724)"/>
            </g>
        </g>
    </g>
</svg>
